HIERARCHY
ROOT root
{
	OFFSET	0	13.1	24.9
	CHANNELS 6  Xposition Yposition Zposition Xrotation Yrotation Zrotation
	JOINT spine_1
	{
		OFFSET	0	9.99999	0
		CHANNELS 3  Xrotation Yrotation Zrotation
		JOINT spine_2
		{
			OFFSET	0	112	-10
			CHANNELS 3  Xrotation Yrotation Zrotation
			JOINT spine_3
			{
				OFFSET	0	206.5	19.3
				CHANNELS 3  Xrotation Yrotation Zrotation
				JOINT spine_4
				{
					OFFSET	0	110.4	14.6
					CHANNELS 3  Xrotation Yrotation Zrotation
					JOINT neck_1
					{
						OFFSET	0	71.8	-50.3
						CHANNELS 3  Xrotation Yrotation Zrotation
						JOINT neck_2
						{
							OFFSET	0	86.2	-25.8
							CHANNELS 3  Xrotation Yrotation Zrotation
							JOINT head_ee
							{
								OFFSET	0	179.8	-8.7
								CHANNELS 3  Xrotation Yrotation Zrotation
								End Site
								{
									OFFSET	1	0	0
								}
							}
						}
					}
					JOINT left_clavicle
					{
						OFFSET	-43.2	22.4	-70.8
						CHANNELS 3  Xrotation Yrotation Zrotation
						JOINT left_shoulder
						{
							OFFSET	-93.9	-5.79999	48.7
							CHANNELS 3  Xrotation Yrotation Zrotation
							JOINT left_elbow
							{
								OFFSET	-291.4	-30.8	15.2
								CHANNELS 3  Xrotation Yrotation Zrotation
								JOINT left_lowarm_twist
								{
									OFFSET	-110.7	-3.89999	13.6
									CHANNELS 3  Xrotation Yrotation Zrotation
									JOINT left_hand
									{
										OFFSET	-110.7	-3.89999	13.6
										CHANNELS 3  Xrotation Yrotation Zrotation
										JOINT left_ee
										{
											OFFSET	-80.8	-5.10001	12.1
											CHANNELS 3  Xrotation Yrotation Zrotation
											End Site
											{
												OFFSET	1	0	0
											}
										}
									}
								}
							}
						}
					}
					JOINT right_clavicle
					{
						OFFSET	43.2	22.4	-70.8
						CHANNELS 3  Xrotation Yrotation Zrotation
						JOINT right_shoulder
						{
							OFFSET	93.9	-5.79999	48.7
							CHANNELS 3  Xrotation Yrotation Zrotation
							JOINT right_elbow
							{
								OFFSET	291.4	-30.8	15.2
								CHANNELS 3  Xrotation Yrotation Zrotation
								JOINT right_lowarm_twist
								{
									OFFSET	110.7	-3.89999	13.6
									CHANNELS 3  Xrotation Yrotation Zrotation
									JOINT right_hand
									{
										OFFSET	110.7	-3.89999	13.6
										CHANNELS 3  Xrotation Yrotation Zrotation
										JOINT right_ee
										{
											OFFSET	80.8	-5.10001	12.1
											CHANNELS 3  Xrotation Yrotation Zrotation
											End Site
											{
												OFFSET	1	0	0
											}
										}
									}
								}
							}
						}
					}
				}
			}
		}
	}
	JOINT left_hip
	{
		OFFSET	-82.8	-127.5	0.300001
		CHANNELS 3  Xrotation Yrotation Zrotation
		JOINT left_knee
		{
			OFFSET	-28.2	-396.7	2.2
			CHANNELS 3  Xrotation Yrotation Zrotation
			JOINT left_ankle
			{
				OFFSET	-11.7	-411.3	35.4
				CHANNELS 3  Xrotation Yrotation Zrotation
				JOINT left_toes
				{
					OFFSET	0	-60	-88.6
					CHANNELS 3  Xrotation Yrotation Zrotation
					JOINT left_foot_ee
					{
						OFFSET	-22.5	-16.5	-42.2
						CHANNELS 3  Xrotation Yrotation Zrotation
						End Site
						{
							OFFSET	1	0	0
						}
					}
				}
			}
		}
	}
	JOINT right_hip
	{
		OFFSET	82.8	-127.5	0.300001
		CHANNELS 3  Xrotation Yrotation Zrotation
		JOINT right_knee
		{
			OFFSET	28.2	-396.7	2.2
			CHANNELS 3  Xrotation Yrotation Zrotation
			JOINT right_ankle
			{
				OFFSET	11.7	-411.3	35.4
				CHANNELS 3  Xrotation Yrotation Zrotation
				JOINT right_toes
				{
					OFFSET	0	-60	-88.6
					CHANNELS 3  Xrotation Yrotation Zrotation
					JOINT right_foot_ee
					{
						OFFSET	22.5	-16.5	-42.2
						CHANNELS 3  Xrotation Yrotation Zrotation
						End Site
						{
							OFFSET	1	0	0
						}
					}
				}
			}
		}
	}
}
MOTION
Frames: 16
Frame Time: 0.02
859.245497311 598.776 -1645.88726165 37.429948622 71.4125282956 -36.9315905528 -2.13695 0.283008 1.08725 -2.13632 0.213254 1.10305 -2.1314 -0.0650983 1.12159 -2.13313 0.112841 1.1178 -21.0684 2.44916 0.993324 -21.093 4.23906 1.98861 -0.0 0.0 -0.0 1.42051 -5.40247 2.21642 -3.20272 -24.8329 65.9554 0.913732 -24.3529 0.197167 -33.7681 -2.31408 3.57811 5.7693 -1.02946 41.9468 -0.0 0.0 -0.0 3.56113 18.706 -5.45357 -9.09356 2.8596 -69.4013 0.638513 17.5523 -0.0985758 42.1944 0.468297 5.24965 1.31816 -18.049 -15.4901 0.0 0.0 0.0 -0.623387 -24.7525 6.42808 -9.70157 0.27626 1.46148 24.8931 18.0587 -3.38471 -16.1887 0.0 0.0 -0.0 0.0 -0.0 5.47826 9.37264 5.57406 -42.4586 0.630548 -6.33899 13.4794 -18.1955 1.92423 39.7066 -0.0 -0.0 0.0 0.0 0.0 
849.499219499 600.756 -1645.22777286 33.2687851316 69.9004669204 -32.9426067554 -2.06847 0.443728 1.0129 -2.06798 0.378379 1.03907 -2.06032 0.112097 1.10012 -2.06189 0.284424 1.06862 -21.0357 2.35396 1.43189 -21.0521 3.83991 2.3522 -0.0 0.0 -0.0 1.25417 -5.68676 1.85321 -2.70322 -25.0119 65.5051 0.986853 -26.0515 0.228306 -33.6502 -2.30255 3.56833 5.80989 -0.864405 42.3974 -0.0 0.0 -0.0 3.51805 19.2188 -5.31335 -9.31853 2.44018 -69.4071 0.55114 15.2708 -0.0738849 42.1636 0.466559 5.24611 1.29874 -17.9505 -15.3352 0.0 0.0 0.0 -0.83825 -23.1878 6.66754 -9.51214 0.273248 1.43257 25.235 19.4053 -3.4427 -16.2541 0.0 0.0 -0.0 0.0 -0.0 6.96757 9.06562 5.94379 -42.6022 0.640566 -6.35868 12.6775 -18.8633 1.81899 39.6754 -0.0 -0.0 0.0 0.0 0.0 
841.237783234 601.736 -1646.95338015 30.5157440539 69.2343539659 -30.2189934388 -2.06556 0.596847 0.813477 -2.06535 0.543875 0.849805 -2.0567 0.319027 0.957172 -2.05768 0.466185 0.894783 -21.0818 3.21972 2.83187 -21.0938 4.82723 4.02925 -0.0 0.0 -0.0 0.93129 -3.75138 1.4055 -0.780826 -24.9331 64.478 1.20869 -30.91 0.33419 -33.7046 -2.30788 3.57285 5.90835 -0.582258 43.4443 -0.0 0.0 -0.0 3.61671 18.9721 -5.54833 -9.83522 2.08238 -69.3414 0.492971 13.7234 -0.0593223 42.0993 0.462933 5.23872 1.2813 -18.2502 -15.3236 0.0 0.0 0.0 -1.57504 -20.915 6.53329 -8.50419 0.255615 1.27891 24.1928 23.179 -3.37402 -16.1749 0.0 0.0 -0.0 0.0 -0.0 9.02453 8.17661 6.50281 -41.9926 0.598378 -6.27495 9.71756 -17.2485 1.40117 39.0243 -0.0 -0.0 0.0 0.0 0.0 
827.045819063 603.991 -1649.13928561 28.6888035018 68.414173573 -28.219766967 -2.14978 0.580987 0.96278 -2.14942 0.518548 0.997794 -2.13959 0.256621 1.09481 -2.14101 0.426296 1.04055 -20.2466 5.25738 6.15505 -20.2069 7.0418 7.92039 -0.0 0.0 -0.0 1.622 -0.979009 3.03534 2.86668 -14.1511 60.4073 2.01402 -44.9285 0.832835 -40.7304 -3.02917 4.11262 6.83437 1.46826 54.0496 -0.0 0.0 -0.0 3.77448 19.502 -5.8385 -11.1377 4.05572 -69.9926 0.471722 13.1529 -0.054384 42.9218 0.509894 5.33288 1.07026 -21.1184 -14.9443 0.0 0.0 0.0 -2.958 -19.2339 6.38492 -7.92262 0.244212 1.19039 23.8502 28.0219 -3.42852 -12.7778 0.0 0.0 -0.0 0.0 -0.0 11.8949 5.41805 5.9748 -31.208 0.00409523 -4.73056 5.79058 -10.7754 0.835213 33.6248 -0.0 -0.0 0.0 0.0 0.0 
819.672329245 601.195 -1649.54435049 26.5488939288 65.0485565039 -26.2466641181 -2.28158 0.568485 1.3075 -2.28076 0.48414 1.34102 -2.26803 0.135493 1.41927 -2.27067 0.357919 1.38007 -20.0032 5.00896 5.23728 -19.9917 6.99992 6.94828 -0.0 0.0 -0.0 3.01313 -0.176046 5.79507 4.96896 -1.27353 58.2445 2.54482 -51.5682 1.2295 -42.4591 -3.21641 4.23163 7.09894 1.41257 57.2 -0.0 0.0 -0.0 3.76696 21.0906 -5.67289 -10.346 5.17628 -70.3474 0.475574 13.2565 -0.0552638 43.2064 0.52646 5.36531 1.07199 -24.4852 -16.0101 0.0 0.0 0.0 -3.96412 -19.4189 6.23278 -8.57635 0.256967 1.2899 21.3158 28.1439 -3.10032 -11.8974 0.0 0.0 -0.0 0.0 -0.0 12.7328 4.4677 5.66722 -27.5008 -0.131649 -4.17791 4.67267 -3.40452 0.677841 31.3006 -0.0 -0.0 0.0 0.0 0.0 
813.52709899 604.335 -1650.99442687 23.4414069304 65.1540665426 -23.5566867708 -2.29304 0.75357 1.36219 -2.29225 0.665372 1.40737 -2.2743 0.294433 1.52861 -2.27716 0.532128 1.46295 -19.313 6.67527 7.02011 -19.2814 9.219 9.2202 -0.0 0.0 -0.0 2.71352 0.864015 5.28989 5.75544 -2.0098 58.3279 2.79033 -54.1058 1.4252 -43.7813 -3.36198 4.31882 7.32687 1.80327 60.4587 -0.0 0.0 -0.0 4.05497 21.2464 -6.2801 -11.6854 5.45342 -70.4136 0.530167 14.7154 -0.0684592 42.1724 0.467054 5.24712 0.947427 -22.9138 -14.7751 0.0 0.0 0.0 -3.82563 -17.8188 6.28842 -7.31957 0.231439 1.09873 24.3183 28.1237 -3.49093 -10.9974 0.0 0.0 -0.0 0.0 -0.0 15.9232 2.74306 3.92112 -20.5014 -0.289341 -3.11603 0.166887 -3.9775 0.0244861 30.2872 -0.0 -0.0 0.0 0.0 0.0 
813.258660181 604.335 -1653.00648735 23.015288628 64.6894408926 -23.0862215462 -2.29304 0.75357 1.36219 -2.29225 0.665372 1.40737 -2.2743 0.294433 1.52861 -2.27716 0.532128 1.46295 -19.313 6.67527 7.02011 -19.2814 9.219 9.2202 -0.0 0.0 -0.0 2.71352 0.864015 5.28989 5.75544 -2.0098 58.3279 2.79033 -54.1058 1.4252 -43.7813 -3.36198 4.31882 7.32687 1.80327 60.4587 -0.0 0.0 -0.0 4.05497 21.2464 -6.2801 -11.6854 5.45342 -70.4136 0.530167 14.7154 -0.0684592 42.1724 0.467054 5.24712 0.947427 -22.9138 -14.7751 0.0 0.0 0.0 -3.82563 -17.8188 6.28842 -7.31957 0.231439 1.09873 24.3183 28.1237 -3.49093 -10.9974 0.0 0.0 -0.0 0.0 -0.0 15.9232 2.74306 3.92112 -20.5014 -0.289341 -3.11603 0.166887 -3.9775 0.0244861 30.2872 -0.0 -0.0 0.0 0.0 0.0 
782.25177133 607.232 -1650.30651644 13.0924956168 62.1853758008 -14.3192547363 -1.77284 0.792855 1.57085 -1.77173 0.691305 1.6181 -1.75034 0.283057 1.73664 -1.75412 0.553737 1.67018 -16.0566 8.86966 7.41922 -16.0539 12.744 10.0553 -0.0 0.0 -0.0 3.4041 5.92537 6.88232 6.47708 2.409 58.1224 3.50759 -60.0639 2.02814 -46.5731 -3.67575 4.49178 7.58633 2.86662 65.1318 -0.0 0.0 -0.0 4.76103 22.6653 -7.67388 -10.6923 6.62653 -69.2039 0.33377 9.38853 -0.0274073 42.8907 0.508097 5.32934 0.790882 -25.1746 -14.5648 0.0 0.0 0.0 -2.72156 -13.5776 7.8232 -5.8606 0.19655 0.877563 22.2717 28.2601 -3.22885 -9.88264 0.0 0.0 -0.0 0.0 -0.0 18.3478 1.10704 3.77889 -16.5495 -0.320762 -2.51062 -2.79535 -1.12133 -0.41509 28.0723 -0.0 -0.0 0.0 0.0 0.0 
745.778258577 608.014 -1652.18124574 10.3742947345 62.0206717047 -12.2919717786 -1.44369 0.695472 1.30323 -1.44295 0.611142 1.34483 -1.42741 0.278916 1.4506 -1.42999 0.504488 1.38836 -15.653 8.45583 5.32248 -15.7306 13.1047 7.91011 -0.0 0.0 -0.0 3.8514 10.1257 7.84065 5.03602 5.00138 60.2288 3.40201 -59.3018 1.937 -44.7174 -3.46625 4.37851 7.79995 0.97267 67.1063 -0.0 0.0 -0.0 4.79241 24.5092 -7.56226 -11.4816 6.71142 -68.9545 0.259951 7.33789 -0.0166688 42.0386 0.459521 5.23174 0.441266 -28.1103 -13.4967 0.0 0.0 0.0 -3.57507 -13.2031 9.88659 -5.14027 0.17725 0.768703 24.8363 28.3534 -3.56258 -8.66803 0.0 0.0 -0.0 0.0 -0.0 16.5677 1.02973 5.52393 -16.153 -0.321609 -2.44979 -2.29876 0.13444 -0.342032 28.4029 -0.0 -0.0 0.0 0.0 0.0 
736.253458167 611.732 -1652.85399548 9.7188134058 62.5352199946 -11.7142241767 -1.36416 0.758891 1.23832 -1.36356 0.678562 1.28409 -1.34726 0.360683 1.40684 -1.34955 0.578321 1.33224 -15.3709 8.02422 5.26218 -15.4261 12.2767 7.66972 -0.0 0.0 -0.0 4.44759 11.7167 8.89872 4.03311 6.21718 60.419 3.26317 -58.2447 1.81826 -45.7032 -3.57709 4.43953 7.79779 0.690139 66.8035 -0.0 0.0 -0.0 4.93943 25.1394 -7.81867 -11.2225 6.63857 -69.422 0.244598 6.90882 -0.0147649 42.0815 0.461936 5.23668 0.420821 -28.3101 -13.4465 0.0 0.0 0.0 -3.48551 -10.8671 9.85474 -5.12352 0.176785 0.766174 23.3834 29.0007 -3.3912 -9.08189 0.0 0.0 -0.0 0.0 -0.0 16.5121 0.665603 5.63697 -15.5378 -0.322088 -2.35539 -3.75681 0.830221 -0.561811 28.6162 -0.0 -0.0 0.0 0.0 0.0 
736.269064967 611.732 -1652.6933604 9.72862047852 62.5649490554 -11.7252754684 -1.36416 0.758891 1.23832 -1.36356 0.678562 1.28409 -1.34726 0.360683 1.40684 -1.34955 0.578321 1.33224 -15.3709 8.02422 5.26218 -15.4261 12.2767 7.66972 -0.0 0.0 -0.0 4.44759 11.7167 8.89872 4.03311 6.21718 60.419 3.26317 -58.2447 1.81826 -45.7032 -3.57709 4.43953 7.79779 0.690139 66.8035 -0.0 0.0 -0.0 4.93943 25.1394 -7.81867 -11.2225 6.63857 -69.422 0.244598 6.90882 -0.0147649 42.0815 0.461936 5.23668 0.420821 -28.3101 -13.4465 0.0 0.0 0.0 -3.48551 -10.8671 9.85474 -5.12352 0.176785 0.766174 23.3834 29.0007 -3.3912 -9.08189 0.0 0.0 -0.0 0.0 -0.0 16.5121 0.665603 5.63697 -15.5378 -0.322088 -2.35539 -3.75681 0.830221 -0.561811 28.6162 -0.0 -0.0 0.0 0.0 0.0 
724.138863093 609.158 -1651.42160924 9.30434335339 64.9246961957 -11.3621026971 -1.17914 0.547998 1.2753 -1.17836 0.465745 1.30758 -1.16673 0.152534 1.37963 -1.16919 0.368487 1.33824 -15.0045 8.32697 4.56609 -15.095 13.2238 7.07945 -0.0 0.0 -0.0 4.51958 9.96799 9.00104 2.89463 6.50179 60.1664 2.96579 -55.7473 1.56881 -41.9658 -3.16261 4.19824 7.83313 -0.608241 66.1764 -0.0 0.0 -0.0 5.18785 26.7791 -8.19063 -10.7973 5.61314 -69.3208 0.196898 5.57102 -0.00958009 42.7882 0.502178 5.31764 0.34132 -29.2338 -13.3027 0.0 0.0 0.0 -3.5813 -12.3821 9.92887 -4.95631 0.172101 0.740941 25.7338 28.3434 -3.67595 -8.3811 0.0 0.0 -0.0 0.0 -0.0 15.629 1.34481 5.90745 -15.6997 -0.32206 -2.38024 -2.43668 0.308075 -0.362833 29.5104 -0.0 -0.0 0.0 0.0 0.0 
714.067822743 608.309 -1651.649748 9.14506716933 66.3389028528 -11.2617218596 -1.10097 0.470115 1.32392 -1.10008 0.384926 1.35115 -1.09 0.0657169 1.40336 -1.09263 0.286506 1.37538 -13.5878 8.65691 4.01146 -13.682 14.0287 6.49094 -0.0 0.0 -0.0 4.40954 9.20472 8.79536 1.43028 6.62895 60.0891 2.72303 -53.4394 1.3709 -38.835 -2.82813 3.97574 7.94198 -2.37452 66.2526 -0.0 0.0 -0.0 5.75231 28.1645 -9.27203 -10.8863 4.79826 -69.2783 0.184866 5.23253 -0.00844729 42.8709 0.506949 5.32707 0.312271 -29.2407 -13.1445 0.0 0.0 0.0 -3.89694 -12.5716 9.47001 -4.68066 0.164219 0.699371 27.7551 27.7268 -3.91029 -7.19927 0.0 0.0 -0.0 0.0 -0.0 15.0869 0.903646 6.40547 -15.6321 -0.32208 -2.36987 -3.52201 2.31902 -0.528887 29.0496 -0.0 -0.0 0.0 0.0 0.0 
705.233942669 607.922 -1650.40554359 9.33225699657 68.3491694658 -11.3376114534 -1.03126 0.334611 1.32034 -1.03033 0.249924 1.33895 -1.0236 -0.0613781 1.36068 -1.02615 0.154267 1.35331 -12.8224 8.97122 3.77648 -12.9183 14.6875 6.26858 -0.0 0.0 -0.0 4.56997 9.15813 9.07768 -1.00322 7.06833 61.1737 2.52487 -51.3486 1.21389 -37.5661 -2.69612 3.88043 7.89761 -2.76337 65.1393 -0.0 0.0 -0.0 6.06115 28.2994 -9.93048 -10.1587 4.50988 -69.1384 0.199169 5.63485 -0.00980176 42.9022 0.508762 5.33065 0.287248 -29.4023 -13.0591 0.0 0.0 0.0 -4.17385 -12.4224 9.46342 -4.74615 0.16611 0.709245 28.4179 27.6785 -3.98937 -6.81686 0.0 0.0 -0.0 0.0 -0.0 14.455 1.23302 5.96682 -15.7071 -0.322057 -2.38138 -4.21196 1.93247 -0.632595 29.5723 -0.0 -0.0 0.0 0.0 0.0 
688.167251894 605.257 -1646.37722882 8.65657678959 71.3658642373 -11.1441361447 -1.06192 0.381848 1.48043 -1.06075 0.286881 1.50172 -1.0521 -0.063192 1.52756 -1.05532 0.178823 1.51838 -11.406 9.36786 3.3589 -11.4912 15.5459 5.80022 -0.0 0.0 -0.0 4.47145 8.183 8.88545 -3.66341 7.59937 61.7349 2.21142 -47.6024 0.975506 -35.4665 -2.48243 3.71641 7.95078 -3.81079 64.9373 -0.0 0.0 -0.0 6.63123 29.277 -11.0654 -8.90856 4.44913 -68.1782 0.236179 6.6732 -0.0137693 42.88 0.507479 5.32812 0.260347 -29.4295 -12.9199 0.0 0.0 0.0 -4.19194 -11.9525 9.52455 -4.82016 0.168233 0.720403 31.0686 27.3052 -4.29216 -5.84242 0.0 0.0 -0.0 0.0 -0.0 13.6634 0.796328 6.70848 -15.7928 -0.322012 -2.39452 -5.1136 2.71151 -0.771406 29.4806 -0.0 -0.0 0.0 0.0 0.0 
687.425470076 605.257 -1654.59037812 8.10253720321 70.0493052932 -10.5571725332 -1.06192 0.381848 1.48043 -1.06075 0.286881 1.50172 -1.0521 -0.063192 1.52756 -1.05532 0.178823 1.51838 -11.406 9.36786 3.3589 -11.4912 15.5459 5.80022 -0.0 0.0 -0.0 4.47145 8.183 8.88545 -3.66341 7.59937 61.7349 2.21142 -47.6024 0.975506 -35.4665 -2.48243 3.71641 7.95078 -3.81079 64.9373 -0.0 0.0 -0.0 6.63123 29.277 -11.0654 -8.90856 4.44913 -68.1782 0.236179 6.6732 -0.0137693 42.88 0.507479 5.32812 0.260347 -29.4295 -12.9199 0.0 0.0 0.0 -4.19194 -11.9525 9.52455 -4.82016 0.168233 0.720403 31.0686 27.3052 -4.29216 -5.84242 0.0 0.0 -0.0 0.0 -0.0 13.6634 0.796328 6.70848 -15.7928 -0.322012 -2.39452 -5.1136 2.71151 -0.771406 29.4806 -0.0 -0.0 0.0 0.0 0.0 
